<?xml version="1.0" standalone="no"?>
<!DOCTYPE svg PUBLIC "-//W3C//DTD SVG 20010904//EN"
 "http://www.w3.org/TR/2001/REC-SVG-20010904/DTD/svg10.dtd">
<svg version="1.0" xmlns="http://www.w3.org/2000/svg"
 width="1280.000000pt" height="849.000000pt" viewBox="0 0 1280.000000 849.000000"
 preserveAspectRatio="xMidYMid meet">

<g transform="translate(0.000000,849.000000) scale(0.100000,-0.100000)"
fill="#000000" stroke="none">
<path d="M2745 4984 c-164 -23 -353 -129 -442 -246 -145 -193 -185 -433 -109
-654 117 -340 492 -533 833 -429 126 39 222 95 299 177 43 45 124 158 124 172
0 4 7 22 15 39 47 103 66 278 42 393 -57 265 -223 449 -472 522 -77 23 -222
36 -290 26z m238 -169 c225 -65 362 -241 375 -477 6 -130 -14 -213 -78 -311
-105 -161 -245 -237 -438 -237 -93 0 -180 19 -244 53 -49 26 -148 98 -148 108
0 3 -14 23 -30 45 -81 100 -114 251 -91 404 11 67 20 96 64 190 19 40 138 155
187 180 85 44 150 59 253 59 60 1 119 -5 150 -14z"/>
<path d="M7810 4979 c-81 -14 -207 -66 -276 -115 -126 -89 -204 -197 -261
-361 -22 -66 -26 -95 -26 -188 0 -152 35 -271 113 -387 56 -83 83 -112 155
-163 215 -153 465 -180 700 -77 275 121 440 430 389 729 -43 257 -213 454
-465 539 -80 27 -242 39 -329 23z m304 -179 c136 -53 222 -131 282 -257 113
-235 38 -524 -173 -669 -80 -55 -141 -75 -250 -81 -171 -10 -299 34 -408 142
-100 98 -142 189 -152 326 -10 150 21 261 104 371 103 135 229 195 413 197 95
1 113 -2 184 -29z"/>
<path d="M4420 4305 l0 -655 85 0 85 0 0 273 c0 199 3 276 12 285 7 7 29 12
49 12 45 0 46 -1 237 -265 72 -99 152 -208 177 -242 l46 -63 96 0 c92 0 95 1
82 19 -8 11 -88 117 -179 236 -220 288 -222 292 -215 314 3 10 34 33 69 50
305 150 250 599 -83 675 -51 12 -123 16 -265 16 l-196 0 0 -655z m445 491
c103 -50 138 -104 138 -211 0 -85 -18 -129 -72 -178 -54 -48 -96 -59 -226 -55
l-110 3 -3 220 c-1 121 0 225 2 232 4 9 35 13 113 13 94 0 115 -3 158 -24z"/>
<path d="M6158 4315 c-2 -355 -1 -650 0 -655 2 -6 39 -10 83 -10 l79 0 0 655
0 655 -80 0 -80 0 -2 -645z"/>
<path d="M9520 4305 l0 -655 75 0 75 0 0 468 c0 491 2 515 43 499 14 -5 150
-182 282 -366 28 -39 87 -121 133 -183 139 -188 164 -224 232 -322 l65 -95 68
-1 67 0 0 655 0 655 -81 0 -80 0 2 -463 c2 -255 -1 -468 -5 -475 -20 -32 -62
9 -168 163 -30 44 -78 112 -107 150 -29 39 -145 195 -259 347 l-207 277 -67 1
-68 0 0 -655z"/>
<path d="M2080 3415 l0 -25 4320 0 4320 0 0 25 0 25 -4320 0 -4320 0 0 -25z"/>
</g>
</svg>
